# xmcd
#
# Track frame offsets:
#	150
#	18480
#	35635
#	53525
#	71645
#	86645
#	109935
#	128592
#	149250
#	162622
#	178410
#	198670
#	218995
#	236690
#
# Disc length: 3378 seconds
#
# Revision: 2
# Processed by: cddbd v1.5PL3 Copyright (c) Steve Scherf et al.
# Submitted via: audiograbber 1.83.01
#
DISCID=d40d300e
DTITLE=Tim McGraw - Set This Circus Down
DYEAR=2001
DGENRE=Country
TTITLE0=The Cowboy In Me
TTITLE1=Telluride
TTITLE2=You Get Used To Somebody
TTITLE3=Unbroken
TTITLE4=Things Change
TTITLE5=Angel Boy
TTITLE6=Forget About Us
TTITLE7=Take Me Away From Here
TTITLE8=Smilin'
TTITLE9=Set This Circus Down
TTITLE10=Angry All The Time
TTITLE11=Let Me Love You
TTITLE12=Grown Men Don't Cry
TTITLE13=Why We Said Goodbye
EXTD=
EXTT0=
EXTT1=
EXTT2=
EXTT3=
EXTT4=
EXTT5=
EXTT6=
EXTT7=
EXTT8=
EXTT9=
EXTT10=
EXTT11=
EXTT12=
EXTT13=
PLAYORDER=
